<svg width="85" height="77" viewBox="0 0 85 77" fill="none" xmlns="http://www.w3.org/2000/svg">
<path fill-rule="evenodd" clip-rule="evenodd" d="M58.1539 62.2306C73.3404 60.0173 85 47.0039 85 31.2812C85 14.0051 70.9224 0 53.5569 0C42.2838 0 32.3963 5.90197 26.8461 14.7694C11.6596 16.9827 0 29.9961 0 45.7188C0 62.9949 14.0775 77 31.4431 77C42.7162 77 52.6037 71.098 58.1539 62.2306Z" fill="#6C63FF"/>
<path d="M59.9963 23.5592L39.5671 43.9725L31.9755 36.3935L34.5001 33.8731L39.5671 38.9317L57.4717 21.0567L59.9963 23.5592ZM42.0916 50.05C34.1957 50.05 27.7679 43.6329 27.7679 35.75C27.7679 27.8671 34.1957 21.45 42.0916 21.45C44.9027 21.45 47.5347 22.2722 49.7548 23.6844L52.351 21.0925C49.4325 19.0726 45.9053 17.875 42.0916 17.875C32.2083 17.875 24.187 25.883 24.187 35.75C24.187 45.617 32.2083 53.625 42.0916 53.625C45.1891 53.625 48.1076 52.8385 50.6501 51.4442L47.9644 48.763C46.1739 49.5852 44.1865 50.05 42.0916 50.05ZM54.6249 41.1125H49.2535V44.6875H54.6249V50.05H58.2058V44.6875H63.5772V41.1125H58.2058V35.75H54.6249V41.1125Z" fill="#EFEFEF"/>
</svg>
