<svg width="234" height="215" viewBox="0 0 234 215" fill="none" xmlns="http://www.w3.org/2000/svg">
<path d="M111.821 206.407H71.8218V210.316H111.821V206.407Z" fill="#D1D3D4"/>
<path opacity="0.2" d="M111.821 206.407H106.206V210.316H111.821V206.407Z" fill="black"/>
<path d="M40.1149 214.085L42.1422 173.167L13.3683 171.147C13.3683 171.147 7.49211 211.876 6.01559 214.085H8.90891C8.90891 214.085 14.8249 183.53 14.8249 176.26L39.73 175.802L38.1506 214.085H40.1149Z" fill="#BCBEC0"/>
<path d="M92.2011 137.943H88.7637V207.509H92.2011V137.943Z" fill="#D1D3D4"/>
<path d="M67.9696 185.331L64.1871 194.678C63.8407 195.534 63.683 196.455 63.7248 197.377C63.7666 198.3 64.0069 199.202 64.4293 200.024L68.5968 208.129C68.5968 208.129 62.4485 209.865 56.4561 195.989C56.6121 195.199 56.4561 182.74 56.4561 182.74L67.9696 185.331Z" fill="#F9B499"/>
<path d="M92.2774 179.249L104.926 208.657C104.926 208.657 97.7124 207.078 92.2774 196.775L81.9186 185.554L92.2774 179.249Z" fill="#F9B499"/>
<path d="M26.866 113.745H14.0717V125.537H26.866V113.745Z" fill="#3F3D56"/>
<path d="M51.2535 145.694C51.2535 145.694 50.0523 129.983 48.8114 127.15H44.9857L47.1524 129.456V140.405C47.1524 140.405 46.2764 146.431 51.2535 145.694Z" fill="#D1D3D4"/>
<path d="M31.3752 131.145L36.8367 165.861L17.2603 166.163C17.2603 166.163 18.8298 140.2 18.5345 133.361L31.3752 131.145Z" fill="#E6E7E8"/>
<path d="M17.2603 166.163C17.2603 166.163 20.2831 138.537 17.2603 116.506L8.89893 116.897C8.89893 116.897 15.3657 146.073 11.9747 161.923C11.9747 161.923 9.14114 170.586 15.2231 173.353L59.0906 175.012C59.0906 175.012 60.013 165.241 53.1912 165.609L17.2603 166.163Z" fill="#D1D3D4"/>
<path d="M155.227 110.772H77.3032C76.2669 110.771 75.2732 110.359 74.5404 109.626C73.8076 108.894 73.3955 107.9 73.3946 106.863V29.6067C73.3955 28.57 73.8074 27.576 74.5402 26.8427C75.2729 26.1093 76.2666 25.6965 77.3032 25.6948H155.227C156.264 25.6956 157.259 26.1081 157.992 26.8415C158.726 27.575 159.138 28.5695 159.139 29.6067V106.863C159.137 107.9 158.724 108.894 157.991 109.627C157.258 110.359 156.264 110.771 155.227 110.772ZM77.3032 26.1626C76.3906 26.1644 75.516 26.5279 74.871 27.1735C74.226 27.8191 73.8633 28.6941 73.8624 29.6067V106.863C73.8633 107.776 74.2261 108.65 74.8712 109.296C75.5163 109.941 76.3909 110.303 77.3032 110.304H155.227C156.14 110.303 157.015 109.941 157.66 109.296C158.306 108.651 158.669 107.776 158.671 106.863V29.6067C158.669 28.6938 158.306 27.8188 157.66 27.1733C157.015 26.5278 156.14 26.1644 155.227 26.1626H77.3032Z" fill="#D1D3D4"/>
<path d="M188.308 105.994V112.006H158.27C158.125 112.007 157.981 111.979 157.847 111.923C157.713 111.868 157.591 111.787 157.488 111.685C157.386 111.583 157.304 111.461 157.249 111.327C157.193 111.193 157.165 111.05 157.165 110.905V107.096C157.165 106.951 157.193 106.807 157.249 106.673C157.304 106.54 157.386 106.418 157.488 106.316C157.591 106.213 157.713 106.132 157.847 106.077C157.981 106.022 158.125 105.994 158.27 105.994H188.308Z" fill="#CCCCCC"/>
<path d="M188.308 112.242H158.114C157.804 112.241 157.506 112.117 157.288 111.898C157.069 111.678 156.946 111.381 156.946 111.071V106.93C156.946 106.62 157.069 106.322 157.288 106.103C157.506 105.883 157.804 105.759 158.114 105.759H188.308V106.226H158.114C157.928 106.227 157.75 106.302 157.618 106.434C157.487 106.565 157.414 106.744 157.414 106.93V111.071C157.414 111.257 157.487 111.435 157.618 111.567C157.75 111.699 157.928 111.773 158.114 111.774H188.308V112.242Z" fill="#BCBEC0"/>
<path d="M196.881 119.893H160.051C159.69 119.896 159.343 119.755 159.085 119.502C158.828 119.249 158.681 118.904 158.678 118.543V113.592C158.681 113.231 158.828 112.886 159.085 112.633C159.343 112.38 159.69 112.239 160.051 112.242H196.881V112.71H160.051C159.934 112.708 159.817 112.73 159.708 112.773C159.599 112.816 159.499 112.881 159.415 112.963C159.331 113.045 159.264 113.143 159.218 113.251C159.171 113.359 159.147 113.475 159.145 113.592V118.543C159.147 118.66 159.171 118.776 159.218 118.884C159.264 118.993 159.331 119.09 159.415 119.172C159.499 119.254 159.599 119.319 159.708 119.362C159.817 119.406 159.934 119.427 160.051 119.425H196.881V119.893Z" fill="#D1D3D4"/>
<path d="M166.555 118.274V114.83H170.815V118.39L168.685 116.612L166.555 118.274Z" fill="#BCBEC0"/>
<path d="M174.724 114.598H163.748V115.066H174.724V114.598Z" fill="#CCCCCC"/>
<path d="M198.301 129.851H173.622C172.985 129.851 172.504 128.57 172.504 127.74V121.41C172.504 120.461 172.935 119.751 173.499 119.751H198.295V120.219H173.506C173.254 120.219 172.972 120.729 172.972 121.413V127.744C172.972 128.527 173.43 129.386 173.635 129.386H198.315L198.301 129.851Z" fill="#BCBEC0"/>
<path d="M178.785 125.912V122.571H183.997V125.912L181.393 124.243L178.785 125.912Z" fill="#BCBEC0"/>
<path d="M153.455 128.527V121.141C153.455 120.793 153.592 120.459 153.836 120.211C154.079 119.962 154.411 119.82 154.759 119.814L174.02 119.744C174.02 119.744 172.749 119.814 172.736 121.698L172.766 128.099C172.766 128.099 172.723 129.847 174.126 129.847H154.759C154.412 129.841 154.082 129.7 153.838 129.453C153.594 129.206 153.457 128.874 153.455 128.527Z" fill="#BCBEC0"/>
<path opacity="0.2" d="M188.311 105.994H177.617V112.01H188.311V105.994Z" fill="black"/>
<path d="M188.308 73.7828C191.852 73.7828 194.725 72.0447 194.725 69.9007C194.725 67.7567 191.852 66.0186 188.308 66.0186C184.764 66.0186 181.891 67.7567 181.891 69.9007C181.891 72.0447 184.764 73.7828 188.308 73.7828Z" fill="#BCBEC0"/>
<path d="M181.894 156.066H90.4691V158.286H181.894V156.066Z" fill="#D1D3D4"/>
<path d="M184.863 137.943H181.426V207.509H184.863V137.943Z" fill="#D1D3D4"/>
<path d="M110.918 120.295H99.524V128.849H110.918V120.295Z" fill="#2F2E41"/>
<path d="M143.62 66.0186H66.9112V121.486H143.62V66.0186Z" fill="#2F2E41"/>
<path d="M141.258 68.8257H69.3499V119.359H141.258V68.8257Z" fill="white"/>
<path d="M88.4783 74.5825H82.8377C81.7382 74.5825 80.8469 75.4738 80.8469 76.5733V82.2139C80.8469 83.3134 81.7382 84.2047 82.8377 84.2047H88.4783C89.5778 84.2047 90.4691 83.3134 90.4691 82.2139V76.5733C90.4691 75.4738 89.5778 74.5825 88.4783 74.5825Z" fill="#D1D3D4"/>
<path d="M85.6613 82.5789L82.1343 78.2057L82.496 77.9104L85.6514 81.8224L91.3517 74.4398L91.7234 74.7251L85.6613 82.5789Z" fill="#BCBEC0"/>
<path d="M107.009 74.9508H93.5781V75.4186H107.009V74.9508Z" fill="#D1D3D4"/>
<path d="M115.832 78.1593H93.744V78.6271H115.832V78.1593Z" fill="#D1D3D4"/>
<path d="M129.764 78.1593H119.173V78.6271H129.764V78.1593Z" fill="#D1D3D4"/>
<path d="M102.6 80.9663H93.744V81.4342H102.6V80.9663Z" fill="#D1D3D4"/>
<path d="M122.15 80.9663H104.939V81.4342H122.15V80.9663Z" fill="#D1D3D4"/>
<path d="M88.4783 89.5135H82.8377C81.7382 89.5135 80.8469 90.4049 80.8469 91.5044V97.145C80.8469 98.2445 81.7382 99.1358 82.8377 99.1358H88.4783C89.5778 99.1358 90.4691 98.2445 90.4691 97.145V91.5044C90.4691 90.4049 89.5778 89.5135 88.4783 89.5135Z" fill="#D1D3D4"/>
<path d="M85.6613 97.51L82.1343 93.1368L82.496 92.8415L85.6514 96.7568L91.3517 89.3708L91.7234 89.6562L85.6613 97.51Z" fill="#BCBEC0"/>
<path d="M107.009 89.8818H93.5781V90.3497H107.009V89.8818Z" fill="#D1D3D4"/>
<path d="M115.832 93.0904H93.744V93.5582H115.832V93.0904Z" fill="#D1D3D4"/>
<path d="M129.764 93.0904H119.173V93.5582H129.764V93.0904Z" fill="#D1D3D4"/>
<path d="M102.6 95.8974H93.744V96.3653H102.6V95.8974Z" fill="#D1D3D4"/>
<path d="M122.15 95.8974H104.939V96.3653H122.15V95.8974Z" fill="#D1D3D4"/>
<path d="M88.4385 104.445H82.7979C81.6984 104.445 80.8071 105.336 80.8071 106.435V112.076C80.8071 113.176 81.6984 114.067 82.7979 114.067H88.4385C89.538 114.067 90.4293 113.176 90.4293 112.076V106.435C90.4293 105.336 89.538 104.445 88.4385 104.445Z" fill="#D1D3D4"/>
<path d="M85.6215 112.441L82.0944 108.068L82.4594 107.776L85.6148 111.688L91.3152 104.302L91.6835 104.587L85.6215 112.441Z" fill="#BCBEC0"/>
<path d="M106.97 104.813H93.5383V105.281H106.97V104.813Z" fill="#D1D3D4"/>
<path d="M115.792 108.021H93.7042V108.489H115.792V108.021Z" fill="#D1D3D4"/>
<path d="M129.725 108.021H119.133V108.489H129.725V108.021Z" fill="#D1D3D4"/>
<path d="M102.56 110.829H93.7042V111.296H102.56V110.829Z" fill="#D1D3D4"/>
<path d="M122.106 110.829H104.899V111.296H122.106V110.829Z" fill="#D1D3D4"/>
<path d="M117.601 127.11H93.7042V129.851H117.601V127.11Z" fill="#2F2E41"/>
<path opacity="0.2" d="M117.604 127.11H103.844V129.851H117.604V127.11Z" fill="black"/>
<path d="M208.09 129.851H63.6031V134.864H208.09V129.851Z" fill="#CCCCCC"/>
<path d="M203.544 135.01H68.5138V140.88H203.544V135.01Z" fill="#D1D3D4"/>
<path opacity="0.2" d="M116.632 135.01H68.5138V140.88H116.632V135.01Z" fill="black"/>
<path opacity="0.2" d="M116.632 129.851H63.6031V134.864H116.632V129.851Z" fill="black"/>
<path d="M204.483 206.407H164.484V210.316H204.483V206.407Z" fill="#D1D3D4"/>
<path opacity="0.2" d="M204.483 206.407H198.869V210.316H204.483V206.407Z" fill="black"/>
<path d="M220.522 203.899H219.587V38.0378C219.587 33.8992 217.943 29.9301 215.016 27.0036C212.09 24.0772 208.121 22.4331 203.982 22.4331C199.843 22.4331 195.874 24.0772 192.948 27.0036C190.021 29.9301 188.377 33.8992 188.377 38.0378V49.0204H187.442V38.0378C187.442 33.651 189.184 29.4439 192.286 26.342C195.388 23.2401 199.595 21.4975 203.982 21.4975C208.369 21.4975 212.576 23.2401 215.678 26.342C218.78 29.4439 220.522 33.651 220.522 38.0378V203.899Z" fill="#BCBEC0"/>
<path d="M199.99 70.8198H176.472V62.4385C176.472 60.2588 177.338 58.1683 178.879 56.627C180.421 55.0857 182.511 54.2198 184.691 54.2198V51.4791C184.691 50.6246 185.03 49.8051 185.635 49.2009C186.239 48.5967 187.058 48.2573 187.913 48.2573C188.336 48.2569 188.755 48.3399 189.147 48.5016C189.538 48.6633 189.894 48.9005 190.193 49.1998C190.493 49.499 190.73 49.8543 190.892 50.2454C191.054 50.6365 191.138 51.0557 191.138 51.4791V54.379H191.782C193.958 54.3817 196.045 55.2478 197.584 56.7874C199.123 58.327 199.989 60.4143 199.99 62.5911V70.8198Z" fill="#D1D3D4"/>
<path d="M61.4962 36.2859C71.5162 36.2859 79.6391 28.163 79.6391 18.1429C79.6391 8.12287 71.5162 0 61.4962 0C51.4761 0 43.3532 8.12287 43.3532 18.1429C43.3532 28.163 51.4761 36.2859 61.4962 36.2859Z" fill="#BCBEC0"/>
<path d="M51.6749 17.5059L57.6971 25.9105C57.8955 26.1868 58.1551 26.4135 58.4556 26.5731C58.756 26.7326 59.0893 26.8206 59.4293 26.8302C59.7694 26.8399 60.1071 26.7709 60.4161 26.6286C60.7251 26.4863 60.9971 26.2746 61.2109 26.01L72.9898 11.4107C73.1711 11.1842 73.2731 10.9045 73.2803 10.6145C73.2875 10.3244 73.1994 10.04 73.0296 9.80479C72.9101 9.64192 72.7551 9.50847 72.5762 9.41462C72.3973 9.32077 72.1993 9.269 71.9974 9.26324C71.7955 9.25747 71.5949 9.29788 71.411 9.38138C71.227 9.46488 71.0646 9.58927 70.936 9.74507L60.4444 22.6123C60.3456 22.7316 60.2204 22.8261 60.0787 22.8885C59.937 22.9508 59.7827 22.9793 59.6281 22.9715C59.4735 22.9638 59.3228 22.9201 59.188 22.8439C59.0533 22.7678 58.9381 22.6612 58.8518 22.5327L54.3293 15.681C54.2077 15.4965 54.0494 15.339 53.8642 15.2184C53.6791 15.0978 53.4711 15.0165 53.2532 14.9798C53.0353 14.9431 52.8122 14.9516 52.5977 15.0049C52.3832 15.0582 52.1821 15.155 52.0067 15.2895C51.6748 15.5438 51.4547 15.9171 51.3928 16.3306C51.3309 16.7441 51.432 17.1655 51.6749 17.5059Z" fill="white"/>
<path d="M209.566 206.407H230.848C231.684 206.407 232.486 206.739 233.077 207.331C233.668 207.922 234 208.724 234 209.56V211.338H206.414V209.56C206.414 208.724 206.746 207.922 207.337 207.331C207.928 206.739 208.73 206.407 209.566 206.407Z" fill="#D1D3D4"/>
<path d="M219.424 199.791H220.34C221.324 199.791 222.298 199.985 223.207 200.362C224.116 200.738 224.942 201.29 225.637 201.986C226.333 202.681 226.885 203.507 227.262 204.416C227.638 205.325 227.832 206.299 227.832 207.283V207.741H211.935V207.283C211.935 206.299 212.129 205.325 212.506 204.416C212.882 203.507 213.434 202.681 214.13 201.986C214.825 201.29 215.651 200.738 216.56 200.362C217.469 199.985 218.443 199.791 219.427 199.791H219.424Z" fill="#D1D3D4"/>
<path d="M35.6896 103.738C39.134 102.118 39.9972 96.7025 37.6177 91.6412C35.2382 86.5799 30.517 83.7896 27.0726 85.4089C23.6282 87.0283 22.7649 92.444 25.1444 97.5054C27.5239 102.567 32.2451 105.357 35.6896 103.738Z" fill="#F9B499"/>
<path d="M0 116.506C0 116.486 0.0398163 116.506 0.0597245 116.506C0.435373 116.483 0.801957 116.381 1.13568 116.207C1.46941 116.033 1.76281 115.79 1.99685 115.496C2.23089 115.201 2.40033 114.86 2.49418 114.496C2.58803 114.131 2.60419 113.751 2.5416 113.38C1.96095 109.87 3.5171 109.133 4.20061 108.977C4.70157 108.869 5.18358 108.687 5.63068 108.436C7.38591 107.441 7.10056 106.177 7.10056 106.177C6.10516 98.2731 9.72843 96.8862 10.4916 96.6672C10.7172 96.6075 10.9395 96.5478 11.1552 96.4748C12.4824 96.0356 13.6541 95.2217 14.529 94.1313C15.4039 93.0409 15.9446 91.7206 16.0858 90.3298C7.01761 88.1996 11.9847 80.2364 11.9847 80.2364C18.2889 74.6356 22.6322 82.3632 22.6322 82.3632C34.9321 78.501 36.1631 89.2116 36.1631 89.2116C36.1631 89.2116 33.0209 87.5526 31.3752 87.8048C31.3752 87.8048 30.7348 93.2828 25.6582 96.2226C25.6582 96.2226 24.9316 95.8012 24.5334 96.3387C24.5334 96.3387 26.4446 101.193 29.9385 103.094L30.831 109.097C30.831 109.097 23.183 111.462 21.7629 116.509H17.2703L8.90888 116.9L10.4883 123.537C10.4883 123.537 5.5975 122.511 4.49592 120.696C4.49592 120.696 5.36192 117.936 4.96708 116.834C4.96708 116.834 3.54696 118.646 2.99617 119.276C2.99617 119.263 1.34048 119.329 0 116.506Z" fill="#2F2E41"/>
<path d="M53.9344 71.2445V74.2042H47.9421V71.2611C47.9421 71.2611 43.9604 71.6792 44.4714 65.0564C44.4714 65.0564 44.5776 62.1133 47.2055 62.0072C47.2055 62.0072 55.1222 60.3249 55.7394 64.7412C55.7394 64.7246 56.5623 69.8908 53.9344 71.2445Z" fill="#F9B499"/>
<path d="M18.0799 120.637L17.2703 116.506C17.2703 116.506 21.3315 111.953 17.2703 107.909C17.2703 107.909 15.7208 104.498 10.8167 107.743C10.0902 108.22 9.54563 108.928 9.2711 109.753C8.99657 110.578 9.00807 111.471 9.30373 112.288C10.1963 114.727 11.7259 118.433 13.7432 121.559L18.0799 120.637Z" fill="#F9B499"/>
<path d="M49.1797 144.397L69.0546 146.627C82.6917 146.627 84.1682 156.395 84.1682 156.395L92.2774 179.249L79.5462 186.99C79.5462 186.99 76.5965 188.281 73.6468 171.508" fill="#2F2E41"/>
<path opacity="0.2" d="M49.1797 144.397L69.0546 146.627C82.6917 146.627 84.1682 156.395 84.1682 156.395L92.2774 179.249L79.5462 186.99C79.5462 186.99 76.5965 188.281 73.6468 171.508" fill="black"/>
<path d="M53.7552 146.627L67.9331 148.654C81.3877 149.391 80.1003 157.131 80.1003 157.131C81.5536 165.34 69.5921 185.335 69.5921 185.335H53.7552L60.3913 165.709C60.3913 165.709 34.0595 167.368 31.8132 164.969C31.8132 164.969 22.5891 159.019 30.0679 141.477C30.0679 141.477 35.7848 144.496 47.6269 139.486C47.6269 139.476 45.782 145.485 53.7552 146.627Z" fill="#2F2E41"/>
<path d="M68.5967 208.129C75.1664 206.849 74.901 214.102 74.901 214.102C74.901 214.102 60.8658 216.663 58.3407 207.2H57.2358V214.417H56.4495C56.4495 214.417 54.5449 203.73 53.5263 201.523C53.5263 201.523 52.8229 199.632 56.4495 196.005C56.4594 195.976 62.1366 209.394 68.5967 208.129Z" fill="#6C63FF"/>
<path d="M93.9929 207.605C93.9929 207.605 97.5664 213.943 98.7243 214.085H110.918C110.918 214.085 110.079 208.445 104.926 208.657C104.926 208.657 96.8696 206.447 92.2774 196.775C92.2774 196.775 90.6549 198.009 90.0842 200.757C89.8548 201.88 89.9188 203.043 90.27 204.135C91.0166 206.457 92.5727 211.726 92.2774 214.089H93.4222L93.9929 207.605Z" fill="#6C63FF"/>
<path d="M27.6175 100.735C28.3524 100.219 28.2573 98.8167 27.4053 97.6035C26.5533 96.3903 25.2669 95.8252 24.5321 96.3412C23.7973 96.8573 23.8923 98.2591 24.7443 99.4723C25.5963 100.686 26.8827 101.251 27.6175 100.735Z" fill="#F9B499"/>
<path d="M18.0799 146.627L37.0125 147.748C38.4208 147.897 39.7242 148.561 40.6714 149.614C41.6187 150.666 42.1426 152.032 42.1422 153.448V166.568H39.1559L39.0166 157.088C39.0167 156.541 38.9077 155.999 38.696 155.495C38.4843 154.99 38.1742 154.533 37.7837 154.149C37.3932 153.766 36.9302 153.464 36.4218 153.262C35.9134 153.06 35.3697 152.961 34.8226 152.971L17.9538 153.279L18.0799 146.627Z" fill="#D1D3D4"/>
<path d="M54.462 73.451C54.462 73.451 59.8239 101.412 48.5725 114.979C48.5725 114.979 53.1978 122.654 47.6269 128.543V139.493C47.6269 139.493 37.5334 144.331 30.0679 141.484L29.3379 132.857C29.3379 132.857 23.2295 146.733 18.0799 140.638C18.0799 140.638 11.9847 130.229 11.9847 120.345L18.926 119.084L21.7629 125.6V116.509C21.7629 116.509 22.6488 112.929 26.8726 110.885L38.1539 107.899L40.1248 105.928C40.1248 105.928 48.5725 97.0985 46.9964 73.451H54.462Z" fill="#6C63FF"/>
<path d="M40.1348 105.938C40.1348 105.938 42.5802 111.459 40.1348 114.296L36.8168 113.745L38.144 107.909L40.1348 105.938Z" fill="#6C63FF"/>
<path opacity="0.2" d="M40.1348 105.938C40.1348 105.938 42.5802 111.459 40.1348 114.296L36.8168 113.745L38.144 107.909L40.1348 105.938Z" fill="white"/>
<path d="M33.7575 118.082C33.7575 118.082 37.0755 115.636 36.83 113.745C36.83 113.745 32.2312 112.882 29.3446 109.654C28.8552 109.776 28.3819 109.955 27.9344 110.188C27.5602 110.383 27.2067 110.615 26.8793 110.882C26.9921 111.622 27.2243 112.491 33.7575 118.082Z" fill="#6C63FF"/>
<path opacity="0.2" d="M33.7575 118.082C33.7575 118.082 37.0755 115.636 36.83 113.745C36.83 113.745 32.2312 112.882 29.3446 109.654C28.8552 109.776 28.3819 109.955 27.9344 110.188C27.5602 110.383 27.2067 110.615 26.8793 110.882C26.9921 111.622 27.2243 112.491 33.7575 118.082Z" fill="white"/>
<path d="M35.4829 102.706C35.8715 104.657 36.8004 106.46 38.1639 107.909L36.8366 113.745C36.8366 113.745 31.9592 112.75 29.3512 109.654L29.9518 103.091C29.9518 103.091 33.356 104.282 35.4829 102.706Z" fill="#F9B499"/>
<path d="M36.3423 105.254L35.6787 103.745C35.6787 103.745 32.1151 104.8 29.9352 103.081C29.9385 103.091 31.6771 105.689 36.3423 105.254Z" fill="#F4A48E"/>
</svg>
