<svg width="160" height="156" viewBox="0 0 160 156" fill="none" xmlns="http://www.w3.org/2000/svg">
<g clip-path="url(#clip0_51_1276)">
<path d="M102.05 34.9696H93.5372V107.591C93.5372 108.731 93.3129 109.859 92.8771 110.912C92.4413 111.964 91.8026 112.921 90.9973 113.727C90.1921 114.532 89.2362 115.171 88.1841 115.607C87.132 116.043 86.0044 116.268 84.8656 116.268H19.7786V116.351C19.7786 117.49 20.0028 118.619 20.4386 119.671C20.8744 120.724 21.5132 121.68 22.3184 122.486C23.1236 123.292 24.0795 123.931 25.1316 124.367C26.1837 124.803 27.3113 125.027 28.4501 125.027H102.05C103.189 125.027 104.317 124.803 105.369 124.367C106.421 123.931 107.377 123.292 108.182 122.486C108.987 121.68 109.626 120.724 110.062 119.671C110.498 118.619 110.722 117.49 110.722 116.351V43.6461C110.722 41.3449 109.808 39.138 108.182 37.5109C106.556 35.8837 104.35 34.9696 102.05 34.9696Z" fill="#F2F2F2"/>
<path d="M142.407 150.377C142.558 150.384 142.707 150.344 142.835 150.263C142.962 150.183 143.062 150.065 143.12 149.925C143.178 149.786 143.192 149.632 143.16 149.485C143.128 149.337 143.051 149.203 142.94 149.101L142.89 148.9C142.897 148.884 142.903 148.868 142.91 148.852C143.062 148.493 143.316 148.187 143.641 147.973C143.966 147.758 144.348 147.644 144.737 147.646C145.126 147.647 145.507 147.764 145.83 147.981C146.154 148.198 146.406 148.506 146.555 148.865C147.151 150.302 147.91 151.741 148.097 153.26C148.179 153.932 148.145 154.612 147.994 155.272C149.395 152.216 150.122 148.894 150.126 145.532C150.127 144.689 150.08 143.846 149.986 143.007C149.908 142.32 149.801 141.638 149.663 140.96C148.913 137.284 147.302 133.838 144.962 130.906C143.829 130.288 142.914 129.337 142.338 128.182C142.129 127.767 141.982 127.324 141.9 126.866C142.028 126.883 142.382 124.936 142.285 124.817C142.464 124.547 142.782 124.412 142.977 124.148C143.944 122.837 145.276 123.066 145.971 124.848C147.457 125.599 147.471 126.843 146.56 128.04C145.98 128.801 145.9 129.831 145.391 130.646C145.444 130.713 145.498 130.778 145.55 130.845C146.507 132.077 147.342 133.399 148.041 134.793C147.871 133.231 148.074 131.651 148.633 130.183C149.2 128.815 150.262 127.663 151.198 126.48C151.445 126.162 151.781 125.925 152.164 125.798C152.546 125.672 152.957 125.661 153.345 125.768C153.733 125.875 154.081 126.095 154.344 126.4C154.607 126.704 154.774 127.08 154.824 127.48C154.826 127.498 154.828 127.515 154.83 127.533C154.691 127.611 154.555 127.694 154.422 127.782C154.255 127.894 154.125 128.054 154.05 128.24C153.975 128.427 153.958 128.632 154.002 128.829C154.045 129.025 154.147 129.204 154.294 129.341C154.441 129.479 154.625 129.569 154.824 129.6L154.845 129.603C154.795 130.104 154.708 130.601 154.583 131.088C155.783 135.733 153.192 137.424 149.492 137.5C149.41 137.542 149.33 137.584 149.249 137.624C149.951 139.616 150.392 141.691 150.56 143.797C150.655 145.04 150.649 146.288 150.543 147.529L150.549 147.485C150.817 146.105 151.553 144.859 152.633 143.959C154.237 142.641 156.502 142.155 158.232 141.096C158.416 140.978 158.63 140.915 158.848 140.914C159.067 140.913 159.281 140.976 159.465 141.093C159.65 141.21 159.797 141.377 159.889 141.576C159.981 141.774 160.015 141.994 159.987 142.211L159.98 142.257C159.722 142.362 159.471 142.483 159.228 142.62C159.089 142.698 158.953 142.781 158.82 142.869C158.652 142.981 158.523 143.141 158.448 143.328C158.373 143.514 158.356 143.719 158.4 143.916C158.443 144.112 158.545 144.291 158.692 144.428C158.838 144.566 159.023 144.656 159.222 144.687L159.242 144.69C159.257 144.692 159.27 144.694 159.284 144.696C158.844 145.749 158.225 146.718 157.456 147.561C156.706 151.615 153.482 152 150.034 150.819H150.032C149.654 152.464 149.106 154.065 148.396 155.597H142.554C142.533 155.532 142.514 155.465 142.495 155.4C143.036 155.434 143.579 155.401 144.112 155.303C143.678 154.771 143.245 154.235 142.811 153.702C142.801 153.692 142.792 153.682 142.784 153.671C142.564 153.398 142.342 153.128 142.122 152.856L142.122 152.855C142.11 152.02 142.206 151.187 142.407 150.377Z" fill="#F2F2F2"/>
<path d="M78.0526 25.091C78.2659 25.4144 78.5469 25.6875 78.8761 25.8916C79.2053 26.0956 79.5749 26.2257 79.9592 26.2727C80.3436 26.3198 80.7336 26.2828 81.1023 26.1642C81.471 26.0456 81.8095 25.8483 82.0945 25.586L94.2421 31.0697L96.5842 28.0806L82.1086 21.6731C81.6316 21.226 81.0072 20.9695 80.3538 20.9523C79.7004 20.935 79.0633 21.1582 78.5634 21.5794C78.0634 22.0007 77.7353 22.5909 77.6411 23.2381C77.547 23.8853 77.6934 24.5446 78.0526 25.091Z" fill="#A0616A"/>
<path d="M130.185 28.5104L131.39 35.3416C131.446 35.6603 131.435 35.9872 131.357 36.3014C131.28 36.6156 131.138 36.9101 130.94 37.166C130.742 37.4219 130.492 37.6335 130.208 37.7873C129.923 37.9411 129.61 38.0336 129.287 38.059L108.815 39.6698L84.751 28.8938L87.6251 23.4346L108.515 30.0536L130.185 28.5104Z" fill="#6C63FF"/>
<path d="M82.2718 23.6146H8.67151C3.88237 23.6146 0 27.4992 0 32.2911V104.996C0 109.788 3.88237 113.672 8.67151 113.672H82.2718C87.061 113.672 90.9433 109.788 90.9433 104.996V32.2911C90.9433 27.4992 87.061 23.6146 82.2718 23.6146Z" fill="#F2F2F2"/>
<path d="M8.67165 25.3989C7.76708 25.3989 6.87136 25.5772 6.03565 25.9236C5.19993 26.2699 4.44058 26.7776 3.80095 27.4176C3.16133 28.0576 2.65394 28.8174 2.30777 29.6536C1.96161 30.4898 1.78345 31.386 1.78345 32.2911V104.996C1.78345 106.824 2.50917 108.577 3.80095 109.869C5.09274 111.162 6.84479 111.888 8.67165 111.888H55.6451C60.0464 111.888 64.4045 111.021 68.4707 109.335C72.5369 107.65 76.2316 105.18 79.3437 102.066C82.4559 98.9523 84.9246 95.2555 86.6089 91.1869C88.2931 87.1184 89.16 82.7577 89.16 78.3539V32.2911C89.16 31.386 88.9818 30.4898 88.6357 29.6536C88.2895 28.8174 87.7822 28.0576 87.1425 27.4176C86.5029 26.7776 85.7435 26.2699 84.9078 25.9236C84.0721 25.5772 83.1764 25.3989 82.2718 25.3989H8.67165Z" fill="white"/>
<path d="M66.0464 47.4636H24.7361C24.3571 47.4636 23.9935 47.3129 23.7255 47.0448C23.4575 46.7766 23.3069 46.4128 23.3069 46.0335C23.3069 45.6543 23.4575 45.2905 23.7255 45.0223C23.9935 44.7541 24.3571 44.6035 24.7361 44.6035H66.0464C66.4255 44.6035 66.789 44.7541 67.0571 45.0223C67.3251 45.2905 67.4757 45.6543 67.4757 46.0335C67.4757 46.4128 67.3251 46.7766 67.0571 47.0448C66.789 47.3129 66.4255 47.4636 66.0464 47.4636Z" fill="#F2F2F2"/>
<path d="M66.0464 77.9597H24.7361C24.3571 77.9597 23.9935 77.8091 23.7255 77.5409C23.4575 77.2727 23.3069 76.9089 23.3069 76.5297C23.3069 76.1504 23.4575 75.7866 23.7255 75.5184C23.9935 75.2502 24.3571 75.0996 24.7361 75.0996H66.0464C66.4255 75.0996 66.789 75.2502 67.0571 75.5184C67.3251 75.7866 67.4757 76.1504 67.4757 76.5297C67.4757 76.9089 67.3251 77.2727 67.0571 77.5409C66.789 77.8091 66.4255 77.9597 66.0464 77.9597Z" fill="#F2F2F2"/>
<path d="M82.8215 62.7217H7.96075C7.58169 62.7217 7.21815 62.571 6.95011 62.3028C6.68207 62.0346 6.53149 61.6709 6.53149 61.2916C6.53149 60.9123 6.68207 60.5486 6.95011 60.2804C7.21815 60.0122 7.58169 59.8615 7.96075 59.8615H82.8215C83.2006 59.8615 83.5641 60.0122 83.8322 60.2804C84.1002 60.5486 84.2508 60.9123 84.2508 61.2916C84.2508 61.6709 84.1002 62.0346 83.8322 62.3028C83.5641 62.571 83.2006 62.7217 82.8215 62.7217Z" fill="#F2F2F2"/>
<path d="M127.599 58.6197L120.141 74.5166L148.829 71.6094L142.841 56.3487L127.599 58.6197Z" fill="#A0616A"/>
<path d="M134.268 149.989L131.548 149.966L130.344 139.224L134.358 139.258L134.268 149.989Z" fill="#A0616A"/>
<path d="M125.556 154.317C125.553 154.639 125.679 154.95 125.905 155.18C126.131 155.41 126.439 155.541 126.761 155.544L132.169 155.589L133.116 153.669L133.464 155.599L135.504 155.617L134.989 148.734L134.279 148.687L131.383 148.487L130.449 148.425L130.433 150.372L126.089 153.32C125.926 153.431 125.792 153.579 125.699 153.753C125.607 153.926 125.557 154.12 125.556 154.317Z" fill="#2F2E41"/>
<path d="M104.167 150.001L101.574 149.18L103.578 138.558L107.405 139.77L104.167 150.001Z" fill="#A0616A"/>
<path d="M94.5689 151.577C94.4719 151.884 94.5008 152.218 94.6492 152.504C94.7977 152.791 95.0537 153.006 95.3609 153.104L100.517 154.737L101.986 153.18L101.751 155.127L103.696 155.745L105.225 149.014L104.56 148.76L101.851 147.718L100.976 147.383L100.389 149.24L95.3708 150.781C95.1828 150.839 95.0116 150.941 94.8719 151.08C94.7322 151.219 94.6283 151.389 94.5689 151.577Z" fill="#2F2E41"/>
<path d="M147.522 67.1389L121.438 71.9212C121.438 71.9212 117.254 75.0526 118.374 76.174C119.493 77.2955 119.666 77.1218 118.931 77.8575C118.196 78.5932 116.606 79.5767 116.59 80.2204C116.575 80.8642 104.902 109.738 104.902 109.738C104.902 109.738 106.199 109.089 105.226 110.063C104.253 111.036 104.253 111.84 104.253 111.84L99.7141 142.505L107.086 142.94L114.305 114.983L130.406 88.865C130.406 88.865 132.004 112.155 132.071 113.704C132.138 115.253 133.111 113.307 132.138 115.253C131.165 117.2 130.517 115.902 131.165 117.2C131.814 118.498 128.829 144.917 128.829 144.917H135.558L149.99 90.1569C149.99 90.1569 155.125 74.5015 147.522 67.1389Z" fill="#2F2E41"/>
<path d="M139.838 23.3375L129.39 22.2512L126.683 25.7677L123.529 27.4483C122.194 28.1595 121.093 29.2403 120.356 30.5614C119.619 31.8826 119.278 33.3881 119.374 34.898L123.059 56.3487C123.059 56.3487 119.946 63.3626 122.087 65.1082C124.227 66.8539 120.432 71.1773 125.005 69.0014C129.578 66.8254 149.323 69.3258 149.323 69.3258L145.108 57.322L148.257 45.5266L148.603 35.6364C148.668 33.7883 148.12 31.9706 147.044 30.4667C145.969 28.9629 144.426 27.8573 142.657 27.3224L142.216 27.1892L139.838 23.3375Z" fill="#6C63FF"/>
<path d="M154.223 15.3227C154.292 18.2695 153.191 21.1228 151.61 23.629C151.14 22.1659 150.295 20.8343 149.415 19.565C149.859 22.311 149.386 25.1269 148.069 27.5769C148.023 27.6101 147.975 27.6409 147.925 27.6693C146.636 28.445 145.002 28.7592 143.608 28.1989C146.489 25.092 146.855 19.9443 144.44 16.4593C143.756 15.4705 142.872 14.5959 142.449 13.4706C141.78 11.675 142.423 9.69808 142.828 7.82604C143.207 6.08373 143.274 4.01037 142.105 2.73348C142.23 2.55503 142.4 2.41299 142.598 2.32191C142.796 2.23083 143.014 2.19397 143.231 2.21513C143.951 2.31693 144.475 2.94335 144.809 3.58853C145.143 4.23369 145.363 4.94875 145.829 5.506C146.69 6.54904 148.158 6.79563 149.395 7.34534C152.39 8.68022 154.151 12.0438 154.223 15.3227Z" fill="#2F2E41"/>
<path d="M77.0559 155.614C77.0558 155.665 77.0656 155.715 77.085 155.762C77.1043 155.809 77.1327 155.851 77.1686 155.887C77.2045 155.923 77.247 155.952 77.2939 155.971C77.3408 155.99 77.3911 156 77.4418 156H159.569C159.671 156 159.769 155.959 159.841 155.887C159.914 155.815 159.954 155.716 159.954 155.614C159.954 155.512 159.914 155.413 159.841 155.341C159.769 155.269 159.671 155.228 159.569 155.228H77.4418C77.3911 155.228 77.3408 155.238 77.2939 155.257C77.247 155.276 77.2045 155.305 77.1686 155.341C77.1327 155.376 77.1043 155.419 77.085 155.466C77.0656 155.513 77.0558 155.563 77.0559 155.614Z" fill="#CCCCCC"/>
<path d="M154.87 83.6203C156.481 83.6203 157.788 82.313 157.788 80.7004C157.788 79.0879 156.481 77.7806 154.87 77.7806C153.258 77.7806 151.951 79.0879 151.951 80.7004C151.951 82.313 153.258 83.6203 154.87 83.6203Z" fill="#6C63FF"/>
<path d="M129.011 13.6379C129.182 13.0385 128.002 16.7025 128.571 16.7687C131.164 17.0663 134.724 18.6157 136.529 19.3385C136.611 19.3291 136.692 19.3196 136.771 19.3078C136.965 19.2865 137.154 19.2558 137.34 19.2204C141.545 18.4244 143.162 11.9613 143.162 11.9023C143.162 11.6117 142.465 3.63167 141.367 3.51358C141.079 3.48227 140.789 3.4665 140.499 3.46633H137.775C137.211 3.34478 136.64 3.26191 136.065 3.2183H136.06C130.575 2.80019 126.251 6.14504 126.655 10.2151C126.657 10.2198 126.662 10.2245 126.664 10.2293C126.782 10.4041 126.885 10.5694 126.975 10.7277C127.064 10.8765 127.138 11.0182 127.203 11.1529C127.703 12.1922 126.418 13.5001 127.27 13.7442C128.403 14.0689 124.289 24.7402 128.775 24.7402C126.593 25.3609 128.539 15.2914 129.011 13.6379Z" fill="#2F2E41"/>
<path d="M133.907 19.8994C137.469 19.8994 140.357 17.0098 140.357 13.4454C140.357 9.88092 137.469 6.99136 133.907 6.99136C130.344 6.99136 127.457 9.88092 127.457 13.4454C127.457 17.0098 130.344 19.8994 133.907 19.8994Z" fill="#A0616A"/>
<path d="M126.655 10.567C126.762 10.6237 126.868 10.6757 126.975 10.7277C127.088 10.782 127.2 10.8363 127.313 10.8859C129.472 11.8662 131.23 11.9749 132.297 10.567C132.326 9.82624 132.492 9.09727 132.788 8.41743C132.735 9.17716 132.936 9.93285 133.357 10.567H135.505C137.717 12.0363 138.853 12.1898 137.318 17.0134C136.89 18.3575 135.187 26.1787 135.857 27.3385C136.051 27.3173 138.112 18.7507 138.299 18.7152C142.504 17.9192 145.175 10.9875 144.833 10.5954C144.835 9.48029 144.579 8.37994 144.085 7.38044C143.459 6.11414 142.485 5.05344 141.276 4.32378C140.556 3.97428 139.805 3.69198 139.033 3.48048C139.014 3.47575 138.997 3.47102 138.978 3.4663C138.741 3.40252 138.499 3.34347 138.258 3.29386C137.759 3.18842 137.254 3.11191 136.746 3.06473C136.71 3.06237 136.674 3.06 136.641 3.06C136.438 3.06047 136.239 3.11511 136.065 3.21828C136.062 3.21828 136.062 3.22063 136.06 3.22063C135.935 3.29359 135.826 3.39077 135.739 3.50645C135.586 3.70108 135.504 3.94164 135.505 4.18912H133.113C133.024 4.18912 132.936 4.19148 132.847 4.1962C131.251 4.25079 129.732 4.89947 128.589 6.0153C127.445 7.13114 126.759 8.63381 126.664 10.2292C126.657 10.3426 126.655 10.4536 126.655 10.567Z" fill="#2F2E41"/>
<path d="M140.758 8.50387C143.105 8.50387 145.008 6.60021 145.008 4.25193C145.008 1.90366 143.105 0 140.758 0C138.411 0 136.509 1.90366 136.509 4.25193C136.509 6.60021 138.411 8.50387 140.758 8.50387Z" fill="#2F2E41"/>
<path d="M154.902 81.9044C155.11 81.5772 155.244 81.2088 155.295 80.8247C155.346 80.4406 155.313 80.05 155.198 79.6799C155.084 79.3098 154.89 78.969 154.631 78.6811C154.372 78.3932 154.053 78.1651 153.697 78.0125L153.718 64.6782L150.033 63.7655L150.124 79.6032C149.912 80.2218 149.934 80.8968 150.186 81.5002C150.438 82.1037 150.903 82.5936 151.492 82.8773C152.081 83.1609 152.753 83.2186 153.382 83.0393C154.01 82.86 154.551 82.4562 154.902 81.9044Z" fill="#A0616A"/>
<path d="M136.656 32.9219L142.389 29.0228C142.657 28.8409 142.96 28.717 143.278 28.659C143.596 28.601 143.923 28.6102 144.237 28.6861C144.552 28.7619 144.847 28.9027 145.104 29.0994C145.36 29.2962 145.573 29.5444 145.729 29.8283L155.587 47.853L155.624 74.2323L149.47 73.8463L146.943 52.0677L136.656 32.9219Z" fill="#6C63FF"/>
<path d="M92.6177 92.7463H31.3363C30.0034 92.7463 28.725 93.2761 27.7825 94.2192C26.84 95.1622 26.3105 96.4412 26.3105 97.7749C26.3105 99.1086 26.84 100.388 27.7825 101.331C28.725 102.274 30.0034 102.804 31.3363 102.804H92.6177C93.9506 102.804 95.2289 102.274 96.1714 101.331C97.1139 100.388 97.6434 99.1086 97.6434 97.7749C97.6434 96.4412 97.1139 95.1622 96.1714 94.2192C95.2289 93.2761 93.9506 92.7463 92.6177 92.7463Z" fill="white"/>
<path d="M92.6177 103.128H31.3363C29.9174 103.128 28.5566 102.564 27.5533 101.56C26.55 100.556 25.9863 99.1946 25.9863 97.7749C25.9863 96.3552 26.55 94.9936 27.5533 93.9897C28.5566 92.9859 29.9174 92.4219 31.3363 92.4219H92.6177C94.0366 92.4219 95.3974 92.9859 96.4007 93.9897C97.404 94.9936 97.9677 96.3552 97.9677 97.7749C97.9677 99.1946 97.404 100.556 96.4007 101.56C95.3974 102.564 94.0366 103.128 92.6177 103.128ZM31.3363 93.0707C30.0894 93.0707 28.8935 93.5663 28.0118 94.4486C27.1301 95.3308 26.6348 96.5273 26.6348 97.7749C26.6348 99.0225 27.1301 100.219 28.0118 101.101C28.8935 101.983 30.0894 102.479 31.3363 102.479H92.6177C93.8646 102.479 95.0605 101.983 95.9422 101.101C96.8239 100.219 97.3192 99.0225 97.3192 97.7749C97.3192 96.5273 96.8239 95.3308 95.9422 94.4486C95.0605 93.5663 93.8646 93.0707 92.6177 93.0707H31.3363Z" fill="#6C63FF"/>
<path d="M96.2313 114.691H69.1876C68.8085 114.691 68.445 114.541 68.1769 114.273C67.9089 114.004 67.7583 113.641 67.7583 113.261C67.7583 112.882 67.9089 112.518 68.1769 112.25C68.445 111.982 68.8085 111.831 69.1876 111.831H96.2313C96.6103 111.831 96.9739 111.982 97.2419 112.25C97.5099 112.518 97.6605 112.882 97.6605 113.261C97.6605 113.641 97.5099 114.004 97.2419 114.273C96.9739 114.541 96.6103 114.691 96.2313 114.691Z" fill="#6C63FF"/>
</g>
<defs>
<clipPath id="clip0_51_1276">
<rect width="160" height="156" fill="white"/>
</clipPath>
</defs>
</svg>
