<svg width="289" height="192" viewBox="0 0 289 192" fill="none" xmlns="http://www.w3.org/2000/svg">
<g clip-path="url(#clip0_1_494)">
<path d="M103.664 110.498C113.569 93.0808 132.461 79.7076 152.46 80.9959C137.708 97.0328 129.106 117.769 128.175 139.536C127.847 147.932 128.356 157.304 122.78 163.591C119.31 167.503 114.007 169.397 108.792 169.795C103.577 170.192 98.3639 169.25 93.2189 168.312L91.9708 168.695C91.4956 148.667 93.7604 127.915 103.664 110.498Z" fill="#F0F0F0"/>
<path d="M152.489 81.4152C137.7 88.5324 125.09 100.419 117.349 114.915C115.675 118.049 114.251 121.374 113.629 124.89C113.007 128.407 113.441 131.755 114.643 135.095C115.742 138.149 117.219 141.146 117.556 144.413C117.911 147.858 116.643 151.078 114.361 153.634C111.569 156.761 107.82 158.699 104.087 160.467C99.9431 162.429 95.6074 164.402 92.6721 168.065C92.3164 168.509 91.6483 167.932 92.0034 167.488C97.1104 161.115 105.852 159.917 111.914 154.784C114.743 152.388 116.867 149.126 116.733 145.303C116.615 141.961 115.094 138.869 113.955 135.787C112.759 132.55 112.163 129.296 112.592 125.845C113.031 122.315 114.328 118.928 115.915 115.765C119.492 108.631 124.387 102.082 129.995 96.4203C136.44 89.9127 143.951 84.5552 152.203 80.5796C152.714 80.3338 152.997 81.171 152.489 81.4152Z" fill="white"/>
<path d="M119.617 110.071C117.349 108.413 115.745 106.004 115.091 103.274C114.436 100.544 114.774 97.6695 116.043 95.1649C116.302 94.659 117.101 95.037 116.842 95.5436C115.655 97.8736 115.341 100.551 115.956 103.092C116.57 105.634 118.073 107.872 120.194 109.402C120.654 109.735 120.074 110.402 119.617 110.071Z" fill="white"/>
<path d="M113.882 133.62C119.563 132.79 124.723 129.85 128.332 125.387C128.689 124.944 129.357 125.522 129 125.964C125.236 130.602 119.861 133.65 113.947 134.501C113.383 134.582 113.321 133.7 113.882 133.62Z" fill="white"/>
<path d="M136.876 90.9992C137.62 91.8231 138.557 92.4496 139.602 92.8222C140.648 93.1949 141.77 93.3021 142.867 93.1342C143.429 93.0464 143.49 93.9276 142.932 94.0148C141.718 94.1947 140.48 94.0748 139.323 93.6656C138.167 93.2564 137.129 92.5704 136.299 91.6676C136.214 91.589 136.162 91.4809 136.153 91.3653C136.145 91.2496 136.181 91.1351 136.254 91.0449C136.33 90.9568 136.439 90.9025 136.556 90.894C136.672 90.8854 136.788 90.9232 136.876 90.9992Z" fill="white"/>
<path d="M192.252 135.94C191.902 136.004 191.552 136.069 191.2 136.141C186.504 137.036 181.888 138.312 177.399 139.955C177.05 140.076 176.698 140.204 176.353 140.336C165.579 144.409 155.656 150.446 147.087 158.14C143.68 161.205 140.511 164.525 137.607 168.07C133.598 172.967 129.641 178.595 124.402 181.788C123.859 182.127 123.296 182.433 122.715 182.702L92.5349 170.188C92.4806 170.125 92.4231 170.069 92.3685 170.006L91.1406 169.561C91.2776 169.368 91.4238 169.17 91.5607 168.977C91.6397 168.865 91.7254 168.755 91.8044 168.642C91.8592 168.568 91.9143 168.494 91.9595 168.424C91.9777 168.4 91.9961 168.375 92.0114 168.357C92.0566 168.287 92.1061 168.227 92.1484 168.164C92.9626 167.057 93.7859 165.955 94.6185 164.856C94.6214 164.849 94.6214 164.849 94.631 164.845C100.996 156.487 108.115 148.588 116.207 142.02C116.451 141.822 116.697 141.618 116.954 141.426C120.618 138.486 124.516 135.85 128.61 133.544C130.855 132.289 133.163 131.148 135.524 130.126C141.629 127.497 148.11 125.845 154.729 125.23C167.924 124.005 181.364 127.012 191.485 135.299C191.743 135.511 191.996 135.721 192.252 135.94Z" fill="#F0F0F0"/>
<path d="M192.025 136.294C175.93 133.076 158.703 134.977 143.791 141.892C140.568 143.387 137.427 145.184 134.814 147.617C132.199 150.051 130.53 152.986 129.477 156.376C128.515 159.476 127.89 162.758 126.191 165.569C124.4 168.533 121.449 170.341 118.087 171.009C113.975 171.825 109.814 171.116 105.769 170.281C101.278 169.353 96.628 168.319 92.0782 169.477C91.5269 169.617 91.3414 168.754 91.8918 168.614C99.8077 166.599 107.509 170.904 115.441 170.454C119.142 170.244 122.803 168.917 124.998 165.784C126.917 163.045 127.565 159.661 128.512 156.515C129.506 153.21 130.99 150.253 133.411 147.756C135.887 145.201 138.963 143.278 142.135 141.707C149.287 138.164 157.14 135.881 165.027 134.736C174.093 133.419 183.316 133.663 192.3 135.455C192.856 135.566 192.577 136.405 192.025 136.294Z" fill="white"/>
<path d="M148.52 139.389C147.708 136.701 147.878 133.812 148.999 131.238C150.121 128.664 152.122 126.572 154.644 125.337C155.155 125.089 155.565 125.871 155.053 126.12C152.702 127.266 150.839 129.214 149.799 131.613C148.76 134.012 148.612 136.704 149.383 139.202C149.55 139.746 148.686 139.929 148.52 139.389Z" fill="white"/>
<path d="M129.758 154.74C134.794 157.497 140.684 158.255 146.254 156.863C146.806 156.725 146.992 157.588 146.441 157.726C140.642 159.164 134.514 158.363 129.279 155.482C128.781 155.208 129.262 154.467 129.758 154.74Z" fill="white"/>
<path d="M173.787 134.55C173.884 135.655 174.255 136.719 174.865 137.646C175.476 138.573 176.307 139.333 177.284 139.86C177.786 140.128 177.304 140.869 176.805 140.602C175.728 140.015 174.811 139.174 174.135 138.151C173.458 137.129 173.042 135.956 172.923 134.736C172.902 134.622 172.926 134.504 172.989 134.407C173.052 134.309 173.149 134.239 173.262 134.211C173.376 134.187 173.496 134.209 173.594 134.272C173.692 134.336 173.761 134.435 173.787 134.55Z" fill="white"/>
<path d="M134.76 156.586C130.533 136.156 125.25 129.344 125.25 129.344L123.232 127.78L120.804 125.895L120.816 125.652L120.24 125.457L120.105 125.352L119.884 125.182L119.848 125.22L119.773 125.298L108.789 121.566L94.8545 116.834L88.4018 108.449C87.351 107.084 85.998 105.98 84.449 105.225C82.9 104.47 81.1971 104.083 79.4737 104.096L58.8662 104.248C56.0798 104.269 53.4019 105.331 51.359 107.225L37.814 119.785L16.7082 129.862L16.6726 129.826L16.4509 129.985L13.1899 131.543L13.3245 132.244L11.3061 133.7C11.3061 133.7 6.02276 140.038 1.79606 159.048C0.720838 163.885 0.191573 174.261 0.000536852 187.047C-0.00905888 187.694 0.110068 188.336 0.350987 188.937C0.591906 189.537 0.949813 190.083 1.4039 190.544C1.85798 191.005 2.39918 191.371 2.99603 191.621C3.59288 191.871 4.23347 192 4.88056 192H117.611L131.681 192C132.327 192 132.967 191.871 133.564 191.621C134.16 191.372 134.701 191.006 135.155 190.546C135.609 190.086 135.967 189.54 136.209 188.94C136.45 188.34 136.57 187.699 136.561 187.052C136.374 173.139 135.845 161.832 134.76 156.586Z" fill="#3F3D56"/>
<path d="M149.224 17.8169C144.838 17.8169 140.632 19.5586 137.531 22.6589C134.429 25.7592 132.687 29.9641 132.687 34.3485C132.687 38.733 134.429 42.9379 137.531 46.0382C140.632 49.1385 144.838 50.8802 149.224 50.8802H272.463C276.849 50.8802 281.055 49.1385 284.156 46.0382C287.258 42.9379 289 38.733 289 34.3485C289 29.9641 287.258 25.7592 284.156 22.6589C281.055 19.5586 276.849 17.8169 272.463 17.8169H149.224Z" fill="#E5E5E5"/>
<path d="M149.224 21.1626C145.726 21.1626 142.371 22.5518 139.897 25.0247C137.423 27.4975 136.034 30.8514 136.034 34.3486C136.034 37.8457 137.423 41.1996 139.897 43.6724C142.371 46.1453 145.726 47.5345 149.224 47.5345H272.463C275.961 47.5345 279.316 46.1453 281.79 43.6724C284.264 41.1996 285.653 37.8457 285.653 34.3486C285.653 30.8514 284.264 27.4975 281.79 25.0247C279.316 22.5518 275.961 21.1626 272.463 21.1626H149.224Z" fill="white"/>
<path d="M72.4062 96.3565C87.3167 96.3565 99.4041 84.2729 99.4041 69.3671C99.4041 54.4613 87.3167 42.3777 72.4062 42.3777C57.4957 42.3777 45.4083 54.4613 45.4083 69.3671C45.4083 84.2729 57.4957 96.3565 72.4062 96.3565Z" fill="#9E616A"/>
<path d="M65.4996 95.035C65.3843 94.7811 65.2692 94.5264 65.1545 94.2708C65.1987 94.2722 65.2425 94.2785 65.2867 94.2797L65.4996 95.035Z" fill="#2F2E41"/>
<path d="M44.6575 43.6051C46.023 42.5162 47.6189 41.5142 49.3647 41.5706C51.1105 41.6268 52.8809 43.2031 52.5192 44.9114C55.7259 39.2355 60.8299 34.8701 66.9355 32.5814C73.041 30.2927 79.7579 30.227 85.9071 32.3958C90.2461 33.9261 94.5012 36.9878 95.4979 41.4783C95.7538 42.631 95.8087 43.8949 96.5287 44.831C97.4364 46.0111 99.1733 46.2781 100.603 45.8629C100.618 45.8588 100.632 45.8546 100.646 45.8503C100.888 45.7679 101.149 45.7598 101.395 45.8271C101.641 45.8944 101.862 46.034 102.028 46.2279C102.194 46.4218 102.298 46.661 102.326 46.9146C102.355 47.1682 102.306 47.4246 102.188 47.6505L100.96 49.9395C102.507 50.2843 104.116 50.2501 105.647 49.8398C105.902 49.7731 106.17 49.7867 106.417 49.8788C106.663 49.9708 106.875 50.1369 107.023 50.3541C107.171 50.5713 107.249 50.829 107.245 51.0919C107.241 51.3548 107.155 51.61 107.001 51.8225C102.952 57.3788 96.1889 60.9668 89.2871 60.9246C84.3817 60.8947 79.4258 59.2046 74.6518 60.3323C72.8049 60.7686 71.0791 61.6127 69.6011 62.8027C68.1231 63.9926 66.9303 65.4983 66.1103 67.2092C65.2903 68.9201 64.8639 70.7929 64.8623 72.69C64.8607 74.5872 65.2841 76.4606 66.1012 78.1729C64.6346 76.5692 61.7995 76.9489 60.2993 78.5212C58.7991 80.0936 58.4107 82.4404 58.5619 84.608C58.793 87.9234 60.0924 91.0473 61.4622 94.0878C49.9776 93.7264 39.1151 85.6726 35.4587 74.7798C31.787 63.8413 35.6351 50.8003 44.6575 43.6051Z" fill="#2F2E41"/>
<path opacity="0.2" d="M26.5729 150.418L34.1452 191.604L38.6887 192L26.5729 150.418Z" fill="black"/>
<path opacity="0.2" d="M109.983 147.312L102.411 191.575L97.8674 192L109.983 147.312Z" fill="black"/>
<path d="M51.1161 29.7439C49.6642 30.3499 48.1492 29.6857 47.5138 28.1646C46.8688 26.6203 47.4713 25.0526 48.9464 24.4368C50.4217 23.821 51.9097 24.4868 52.5652 26.056C53.2108 27.6018 52.6149 29.1182 51.1161 29.7439ZM48.3349 21.397L47.1805 21.8789C46.8921 21.9979 46.5695 22.0043 46.2766 21.8969C45.9837 21.7895 45.7418 21.5761 45.5988 21.299L45.5417 21.1873C44.2995 18.9479 44.1573 16.2262 45.1212 13.102C46.0141 10.2995 46.385 8.32853 45.6391 6.54291C44.7768 4.47841 42.9354 3.8317 40.5872 4.76853C39.6764 5.14871 39.3866 5.14265 38.6699 5.85341C38.514 6.0099 38.3282 6.1334 38.1235 6.21655C37.9188 6.2997 37.6995 6.34079 37.4786 6.33737C37.265 6.33486 37.0542 6.28938 36.8586 6.20365C36.663 6.11792 36.4867 5.99368 36.3401 5.83836C36.0578 5.53904 35.8997 5.14377 35.8976 4.7324C35.8955 4.32102 36.0497 3.92418 36.3289 3.62202C37.5336 2.36135 38.9866 1.364 40.5963 0.692911C45.6416 -1.41317 48.1814 1.69616 49.3437 4.47871C50.4805 7.20036 49.841 9.7256 48.8135 12.996C47.9524 15.7136 48.0026 17.7272 48.9807 19.7294C49.0513 19.8808 49.0906 20.0449 49.0962 20.2118C49.1018 20.3787 49.0736 20.5451 49.0133 20.7008C48.953 20.8566 48.8618 20.9985 48.7452 21.1182C48.6286 21.2378 48.489 21.3327 48.3349 21.397Z" fill="#6C63FF"/>
<path d="M176.446 42.233H151.926C151.848 42.2336 151.771 42.2187 151.699 42.1892C151.626 42.1598 151.561 42.1164 151.506 42.0615C151.45 42.0067 151.406 41.9414 151.377 41.8695C151.347 41.7976 151.331 41.7205 151.331 41.6426C151.331 41.5647 151.347 41.4876 151.377 41.4157C151.406 41.3438 151.45 41.2786 151.506 41.2237C151.561 41.1688 151.626 41.1254 151.699 41.096C151.771 41.0666 151.848 41.0517 151.926 41.0522H176.446C176.602 41.0533 176.751 41.1159 176.861 41.2265C176.971 41.3371 177.032 41.4867 177.032 41.6426C177.032 41.7985 176.971 41.9481 176.861 42.0587C176.751 42.1693 176.602 42.232 176.446 42.233Z" fill="#6C63FF"/>
<path d="M207.551 42.4298H183.031C182.953 42.4303 182.876 42.4155 182.804 42.386C182.732 42.3566 182.666 42.3132 182.611 42.2583C182.555 42.2034 182.512 42.1382 182.482 42.0663C182.452 41.9944 182.436 41.9173 182.436 41.8394C182.436 41.7615 182.452 41.6844 182.482 41.6125C182.512 41.5406 182.555 41.4754 182.611 41.4205C182.666 41.3656 182.732 41.3222 182.804 41.2928C182.876 41.2633 182.953 41.2484 183.031 41.249H207.551C207.629 41.2484 207.706 41.2633 207.778 41.2928C207.85 41.3222 207.916 41.3656 207.971 41.4205C208.026 41.4754 208.07 41.5406 208.1 41.6125C208.13 41.6844 208.146 41.7615 208.146 41.8394C208.146 41.9173 208.13 41.9944 208.1 42.0663C208.07 42.1382 208.026 42.2034 207.971 42.2583C207.916 42.3132 207.85 42.3566 207.778 42.386C207.706 42.4155 207.629 42.4303 207.551 42.4298Z" fill="#6C63FF"/>
<path d="M238.656 42.6266H214.136C213.98 42.6256 213.831 42.5629 213.721 42.4523C213.611 42.3417 213.549 42.1921 213.549 42.0362C213.549 41.8803 213.611 41.7308 213.721 41.6202C213.831 41.5095 213.98 41.4469 214.136 41.4458H238.656C238.734 41.4453 238.811 41.4602 238.883 41.4896C238.955 41.519 239.021 41.5624 239.076 41.6173C239.132 41.6722 239.175 41.7375 239.205 41.8094C239.235 41.8813 239.251 41.9584 239.251 42.0362C239.251 42.1141 239.235 42.1912 239.205 42.2631C239.175 42.335 239.132 42.4003 239.076 42.4551C239.021 42.51 238.955 42.5534 238.883 42.5829C238.811 42.6123 238.734 42.6272 238.656 42.6266Z" fill="#6C63FF"/>
<path d="M269.761 42.8234H245.241C245.085 42.8224 244.936 42.7597 244.826 42.6491C244.716 42.5385 244.655 42.3889 244.655 42.233C244.655 42.0771 244.716 41.9276 244.826 41.8169C244.936 41.7063 245.085 41.6437 245.241 41.6426H269.761C269.917 41.6437 270.066 41.7063 270.176 41.8169C270.286 41.9276 270.348 42.0771 270.348 42.233C270.348 42.3889 270.286 42.5385 270.176 42.6491C270.066 42.7597 269.917 42.8224 269.761 42.8234Z" fill="#6C63FF"/>
<path d="M164.132 36.7993C166.649 36.7993 168.689 34.7596 168.689 32.2435C168.689 29.7274 166.649 27.6877 164.132 27.6877C161.615 27.6877 159.575 29.7274 159.575 32.2435C159.575 34.7596 161.615 36.7993 164.132 36.7993Z" fill="#6C63FF"/>
<path d="M195.425 36.7993C197.942 36.7993 199.982 34.7596 199.982 32.2435C199.982 29.7274 197.942 27.6877 195.425 27.6877C192.908 27.6877 190.868 29.7274 190.868 32.2435C190.868 34.7596 192.908 36.7993 195.425 36.7993Z" fill="#6C63FF"/>
<path d="M226.718 36.7993C229.235 36.7993 231.275 34.7596 231.275 32.2435C231.275 29.7274 229.235 27.6877 226.718 27.6877C224.201 27.6877 222.161 29.7274 222.161 32.2435C222.161 34.7596 224.201 36.7993 226.718 36.7993Z" fill="#6C63FF"/>
<path d="M258.011 36.7993C260.528 36.7993 262.568 34.7596 262.568 32.2435C262.568 29.7274 260.528 27.6877 258.011 27.6877C255.494 27.6877 253.454 29.7274 253.454 32.2435C253.454 34.7596 255.494 36.7993 258.011 36.7993Z" fill="#6C63FF"/>
</g>
<defs>
<clipPath id="clip0_1_494">
<rect width="289" height="192" fill="white"/>
</clipPath>
</defs>
</svg>
